<svg width="509" height="118" viewBox="0 0 509 118" fill="none" xmlns="http://www.w3.org/2000/svg">
<path fill-rule="evenodd" clip-rule="evenodd" d="M459.078 79.7711C459.735 79.0423 460.612 78.7466 461.564 78.7466H504.96C506.934 78.7466 508.539 77.1411 508.539 75.1678V72.39C508.539 72.0255 508.247 71.6611 507.81 71.6611H461.639C458.353 71.6611 455.575 72.83 453.309 75.0956C451.044 77.3611 449.875 80.1355 449.875 83.4256V101.031C449.875 104.318 451.044 107.095 453.309 109.361C455.575 111.627 458.349 112.795 461.639 112.795H507.81C508.175 112.795 508.539 112.503 508.539 112.067V109.289C508.539 107.315 506.93 105.71 504.96 105.71H461.564C460.615 105.71 459.738 105.346 459.078 104.685C458.422 103.957 458.054 103.152 458.054 102.203V96.5033C458.054 96.1389 458.346 95.7745 458.783 95.7745H499.109C501.082 95.7745 502.688 94.169 502.688 92.1956V89.4178C502.688 89.0534 502.396 88.6855 501.959 88.6855H458.783C458.418 88.6855 458.054 88.3933 458.054 87.9567V82.2567C458.054 81.3078 458.418 80.4312 459.078 79.7745V79.7711Z" fill="black"/>
<path fill-rule="evenodd" clip-rule="evenodd" d="M434.092 71.6611H387.921C384.634 71.6611 381.856 72.83 379.591 75.0956C377.325 77.3611 376.156 80.1355 376.156 83.4256V101.031C376.156 104.318 377.325 107.095 379.591 109.361C381.856 111.627 384.631 112.795 387.921 112.795H434.164C434.528 112.795 434.893 112.503 434.893 112.063V109.289C434.893 107.315 433.284 105.71 431.314 105.71H387.917C386.968 105.71 386.092 105.346 385.432 104.689C384.775 103.96 384.407 103.156 384.407 102.207V82.2636C384.407 81.3147 384.772 80.5103 385.432 79.778C386.088 79.0491 386.965 78.7569 387.917 78.7569H431.314C433.287 78.7569 434.893 77.148 434.893 75.1781V72.4037C434.745 72.0393 434.452 71.6714 434.088 71.6714L434.092 71.6611Z" fill="black"/>
<path fill-rule="evenodd" clip-rule="evenodd" d="M197.541 88.685H162.327C161.378 88.685 160.573 88.3206 159.844 87.6605C159.188 87.0039 158.823 86.1273 158.823 85.1784V82.2562C158.823 81.3073 159.188 80.4307 159.844 79.774C160.501 79.1174 161.378 78.7495 162.327 78.7495H203.382C205.355 78.7495 206.961 77.144 206.961 75.1707V72.3929C206.961 72.0285 206.668 71.6641 206.232 71.6641H162.327C159.112 71.6641 156.334 72.8329 154.072 75.0985C151.807 77.3641 150.638 80.1385 150.638 83.3529V83.9373C150.638 87.1517 151.807 89.9261 154.072 92.1917C156.338 94.4572 159.112 95.6261 162.327 95.6261H197.541C198.49 95.6261 199.294 95.9905 200.023 96.6506C200.68 97.3795 201.044 98.1839 201.044 99.1328V102.055C201.044 103.004 200.68 103.808 200.023 104.537C199.366 105.194 198.49 105.562 197.541 105.562H156.486C154.512 105.562 152.907 107.167 152.907 109.14V111.918C152.907 112.283 153.199 112.647 153.639 112.647H197.544C200.759 112.647 203.533 111.478 205.799 109.213C208.064 106.947 209.233 104.173 209.233 100.886V100.302C209.233 97.015 208.064 94.2372 205.799 91.9717C203.533 89.8539 200.759 88.685 197.544 88.685H197.541Z" fill="black"/>
<path fill-rule="evenodd" clip-rule="evenodd" d="M347.814 71.6611H312.6C309.313 71.6611 306.535 72.83 304.273 75.0956C302.008 77.3611 300.839 80.1355 300.839 83.3499V111.988C300.839 112.352 301.131 112.716 301.568 112.716H305.514C307.488 112.716 309.093 111.111 309.093 109.138V99.9309C309.093 99.5665 309.385 99.1986 309.822 99.1986H350.661C351.025 99.1986 351.393 99.4908 351.393 99.9309V109.138C351.393 111.111 352.998 112.716 354.972 112.716H358.915C359.28 112.716 359.647 112.424 359.647 111.988V83.3499C359.647 80.1355 358.479 77.3611 356.213 75.0956C353.803 72.83 351.025 71.6611 347.811 71.6611H347.814ZM350.592 92.1888H309.826C309.461 92.1888 309.097 91.8965 309.097 91.4565V82.1776C309.097 81.2288 309.461 80.3521 310.118 79.6955C310.774 79.0388 311.651 78.671 312.6 78.671H347.814C348.763 78.671 349.567 79.0354 350.3 79.6955C351.029 80.3521 351.321 81.2288 351.321 82.1776V91.4565C351.321 91.8209 351.029 92.1888 350.592 92.1888Z" fill="black"/>
<path fill-rule="evenodd" clip-rule="evenodd" d="M272.714 71.6611H226.471C226.107 71.6611 225.742 71.9534 225.742 72.3934V112.063C225.742 112.428 226.034 112.795 226.471 112.795H230.418C232.388 112.795 233.997 111.183 233.997 109.217V99.9103C233.997 99.563 234.278 99.2811 234.626 99.2811H272.714C275.928 99.2811 278.706 98.1122 280.968 95.8467C283.234 93.5811 284.403 90.8067 284.403 87.5167V83.4256C284.403 80.2112 283.234 77.4368 280.968 75.1712C278.703 72.8334 275.928 71.6646 272.714 71.6646V71.6611ZM276.148 88.6821C276.148 89.631 275.784 90.4354 275.127 91.1643C274.471 91.8931 273.594 92.1888 272.645 92.1888H234.657C234.292 92.1888 233.924 91.8965 233.924 91.4565V79.4033C233.924 79.0388 234.217 78.6744 234.657 78.6744H272.645C273.594 78.6744 274.399 79.0388 275.127 79.6989C275.784 80.3556 276.148 81.2322 276.148 82.1811V88.6821Z" fill="black"/>
<path fill-rule="evenodd" clip-rule="evenodd" d="M115.427 45.9443C115.279 45.3599 114.478 45.2155 114.186 45.7243C113.529 46.6732 112.797 47.6977 111.92 48.7187C110.607 50.3998 110.019 52.5176 110.167 54.5631C110.315 56.0964 110.387 57.7053 110.387 59.2386C110.387 66.2519 108.998 73.0452 106.296 79.4019C105.127 82.1762 103.738 84.8062 102.132 87.2918C101.184 88.8251 100.671 90.5784 100.819 92.3317C100.967 94.1573 100.967 95.9106 100.891 97.5195C100.891 98.1762 101.696 98.544 102.132 98.0318C111.411 87.8762 116.963 74.2141 116.963 59.3143C116.963 54.7109 116.451 50.2554 115.43 45.9443H115.427Z" fill="black"/>
<path fill-rule="evenodd" clip-rule="evenodd" d="M84.8884 62.3086C95.264 54.7831 103.078 47.3332 107.169 41.4166C109.944 37.4699 111.04 34.1832 110.092 31.8455C100.3 13.4356 80.8695 0.870117 58.5164 0.870117C54.4253 0.870117 50.4786 1.30673 46.6075 2.11119C45.9509 2.25559 45.8787 3.13224 46.4632 3.42446C46.6832 3.57229 46.8998 3.64449 47.1198 3.78889C48.2887 4.44552 49.5297 5.17779 50.7708 6.05445C52.3798 7.15114 54.2053 7.66338 56.103 7.51555C56.9075 7.51555 57.6363 7.44336 58.4408 7.44336C65.454 7.44336 72.2473 8.83226 78.604 11.5344C84.7406 14.1644 90.2928 17.8911 95.1127 22.6388C96.7216 24.2478 98.1827 25.9254 99.5682 27.7544C99.9326 28.191 99.6404 28.8511 99.0559 28.9233C94.4526 29.5077 88.756 31.041 82.255 33.4544C79.9894 34.2589 79.185 37.0332 80.5017 39.0066C80.7939 39.4432 81.0139 39.8111 81.3061 40.2477C81.4505 40.5399 81.8906 40.6877 82.1828 40.5399C82.6228 40.3921 83.0595 40.1755 83.4995 40.0276C94.3117 35.8644 100.156 35.2077 102.638 35.2077C102.858 35.2077 103.003 35.4278 102.858 35.5722C102.494 36.2288 102.054 36.9611 101.397 37.9099C99.5716 40.5399 96.7216 43.6065 93.2872 46.8209C90.0728 49.8153 86.3461 52.8853 82.255 55.9519C81.8906 56.2442 81.3783 56.0998 81.1583 55.7319C79.9172 53.322 78.6005 50.8364 77.1394 48.3542C66.4717 29.7243 53.1773 15.4777 42.5096 10.0011C42.3618 9.92895 42.2174 9.85332 41.9973 9.78112H41.9251C41.7773 9.70892 41.6329 9.63329 41.4129 9.5611C41.4129 9.5611 41.3407 9.5611 41.3407 9.4889C41.1929 9.41671 40.9763 9.34107 40.8284 9.26887C40.0996 8.97665 39.4396 8.68443 38.7107 8.46441H38.6385C38.4907 8.39221 38.4185 8.39222 38.2741 8.39222H38.2019C38.1297 8.39222 38.0575 8.39221 38.0575 8.32002C37.9853 8.32002 37.9097 8.24783 37.8375 8.24783H37.6175C37.5453 8.24783 37.4696 8.24782 37.4696 8.17563C37.3974 8.17563 37.3253 8.10343 37.2496 8.10343H37.1774C37.1052 8.10343 37.0296 8.03124 36.8852 8.03124C36.813 8.03124 36.7374 7.95904 36.593 7.95904C36.5208 7.95904 36.373 7.88685 36.3008 7.88685C36.2286 7.88685 36.1529 7.88684 36.0807 7.81465C36.0085 7.81465 35.8607 7.81465 35.7885 7.74246H34.0352C32.3541 7.74246 30.8208 8.10687 29.4319 8.91133C29.4319 8.91133 29.3597 8.91134 29.3597 8.98353C29.3597 8.98353 29.2875 8.98353 29.2875 9.05573H29.2153C11.7542 18.9912 0.0654297 37.7655 0.0654297 59.3176C0.0654297 70.7142 3.35205 81.382 8.97987 90.3652C9.49212 91.094 10.8054 92.703 11.6821 93.0674C12.9231 93.5796 14.5321 93.7962 16.5054 93.7962C23.6631 93.7962 35.0597 90.3618 48.2852 84.2251C48.5774 84.0773 48.9419 84.1529 49.1619 84.4452C57.1997 95.3295 65.6741 103.512 73.124 107.823C73.7084 108.115 73.6362 108.992 72.9761 109.139C68.3006 110.453 63.4773 111.185 58.5851 111.185C51.5719 111.185 44.7786 109.796 38.4219 107.094C35.4997 105.853 32.7219 104.392 30.0919 102.638C28.1942 101.397 25.9287 100.885 23.6631 101.25C22.422 101.47 21.2531 101.614 20.1564 101.762C19.4998 101.834 19.2798 102.566 19.7164 103.003C30.0163 112.206 43.6063 117.762 58.5095 117.762C69.9061 117.762 80.4982 114.547 89.4127 108.923C91.7504 106.585 92.9915 102.786 93.1393 97.8185C93.5794 88.9797 90.5816 76.6343 84.6649 63.1887C84.5171 62.8965 84.5928 62.5321 84.885 62.312L84.8884 62.3086ZM35.6476 82.3996C24.8354 86.5629 18.991 87.223 16.5088 87.223C16.2888 87.223 16.1444 87.0029 16.2888 86.8586C16.6532 86.2019 17.0933 85.4696 17.7499 84.5208C19.5754 81.8908 22.4255 78.8242 25.8599 75.6064C29.0743 72.612 32.8732 69.3975 37.1087 66.2553C37.4731 65.9631 37.4731 65.4508 37.1809 65.1586C36.3764 64.3541 35.4275 63.6253 34.5509 62.9652C33.2376 62.0164 31.5565 62.1608 30.3154 63.1131C22.2776 69.3941 16.1444 75.4585 12.49 80.4985C12.1977 80.9351 11.4655 80.8629 11.2489 80.4263C11.101 80.134 10.9567 79.8418 10.8123 79.4774C8.11009 73.1208 6.72118 66.3275 6.72118 59.3142C6.72118 52.3009 8.11009 45.5076 10.8123 39.151C13.4423 33.0144 17.1689 27.4622 21.9166 22.6423C22.1367 22.4222 22.3567 22.2056 22.6455 21.9856C23.0855 21.549 23.8865 21.9134 23.8865 22.4979C23.8865 29.7312 25.9321 39.01 29.8032 49.1621C29.9475 49.6022 30.5354 49.7466 30.8998 49.4543C31.6321 48.7977 32.4331 48.2133 33.2376 47.5566C34.6265 46.5321 35.1388 44.7066 34.5509 43.1011C32.9454 38.4256 31.8487 34.1145 31.1164 30.099C29.4353 20.2357 31.0442 15.3402 32.5775 14.4635C32.7219 14.3913 33.0141 14.1713 33.8186 14.1713C34.7675 14.1713 36.813 14.4635 40.1753 16.289C43.1697 17.9702 46.4597 20.4523 49.9664 23.7424C57.4197 30.7557 65.0896 40.6912 71.5185 51.7955C73.0518 54.4977 74.5129 57.1999 75.9018 59.9777C76.0496 60.2699 75.974 60.71 75.6817 60.8544C71.9551 63.4122 67.9362 65.9665 63.8451 68.4521C54.2018 74.2243 44.4107 79.0442 35.6441 82.4065L35.6476 82.3996ZM84.4484 104.168C84.3005 104.24 84.0083 104.461 83.2073 104.461C82.2584 104.461 80.2129 104.168 76.8506 102.343C73.8562 100.662 70.5696 98.1795 67.0595 94.8929C63.1163 91.2419 59.1696 86.7107 55.3707 81.6708C55.0785 81.3064 55.2263 80.7941 55.5907 80.5741C59.3896 78.6007 63.3329 76.4108 67.2796 74.073C71.1506 71.7353 74.8051 69.3975 78.3117 67.0598C78.6761 66.8397 79.1884 66.9876 79.3362 67.352C79.9207 68.6653 80.4329 70.0542 80.9417 71.3709C83.4273 77.5797 85.0328 83.3519 85.9095 88.5397C87.5906 98.403 85.9095 103.299 84.4484 104.172V104.168Z" fill="black"/>
<path fill-rule="evenodd" clip-rule="evenodd" d="M66.9185 53.69L55.3741 51.1322L52.8163 39.5156H50.4063L47.8485 51.1322L36.2354 53.69V56.1L47.8485 58.6578L50.4063 70.1988H52.8163L55.3741 58.6578L66.9185 56.1V53.69Z" fill="black"/>
<path fill-rule="evenodd" clip-rule="evenodd" d="M276.441 39.8786H229.613C229.393 39.8786 229.249 39.7342 229.249 39.5142V38.9676C229.249 33.9998 232.36 29.8365 237.62 29.8365H269.355C275.856 29.8365 281.264 24.6488 281.264 18.1477V17.4155C281.336 10.9144 275.932 5.79883 269.427 5.79883H233.849C228.809 5.79883 224.353 8.94106 222.672 13.3966C222.452 14.0532 222.964 14.7133 223.621 14.7133H229.538C229.758 14.7133 229.978 14.6411 230.122 14.4211C230.999 13.3966 232.315 12.8121 233.849 12.8121H269.427C272.277 12.8121 274.395 15.0055 274.395 17.4876V18.2199C274.395 20.7055 272.277 22.8954 269.427 22.8954H238.744C229.758 22.8954 222.308 30.0531 222.308 38.9676V44.0419C222.308 45.6508 223.549 46.8919 225.158 46.8919H279.291C279.655 46.8919 280.023 46.5997 280.023 46.1631V43.4609C280.023 41.4875 278.414 39.882 276.444 39.882L276.441 39.8786Z" fill="black"/>
<path fill-rule="evenodd" clip-rule="evenodd" d="M183.089 25.7759L207.728 6.98783C208.23 6.60278 207.958 5.80176 207.326 5.80176H199.8C198.367 5.80176 196.974 6.27275 195.833 7.14253L176.182 22.1283C175.529 22.6268 174.728 22.8984 173.906 22.8984H160.375C159.515 22.8984 158.821 22.2039 158.821 21.3444V9.41841C158.821 7.4485 157.208 5.83957 155.242 5.83957H151.295C150.931 5.83957 150.566 6.13179 150.566 6.56841V46.166C150.566 46.5304 150.859 46.8948 151.295 46.8948H155.242C157.212 46.8948 158.821 45.2825 158.821 43.316V31.3899C158.821 30.5305 159.515 29.836 160.375 29.836H173.954C174.776 29.836 175.577 30.1076 176.23 30.6061L195.833 45.5575C196.971 46.4273 198.367 46.8983 199.8 46.8983H207.326C207.958 46.8983 208.23 46.0938 207.728 45.7122L183.089 26.9241C182.711 26.6354 182.711 26.0681 183.089 25.7828V25.7759Z" fill="black"/>
</svg>
